<svg xmlns="http://www.w3.org/2000/svg" viewBox="0 0 31.77 31.77"><defs><style>.cls-1{fill:#82cfc9;fill-rule:evenodd;}</style></defs><g id="Layer_2" data-name="Layer 2"><g id="Layer_1-2" data-name="Layer 1"><path class="cls-1" d="M15.89,0A15.89,15.89,0,1,0,31.77,15.89,15.88,15.88,0,0,0,15.89,0Zm9.23,23.24v-.31l-1.45-1.42a.42.42,0,0,1-.16-.41V10.67a.44.44,0,0,1,.16-.41l1.48-1.42V8.53H20l-3.65,9.11L12.23,8.53H6.85v.31l1.73,2.09a.71.71,0,0,1,.24.6v8.19a1,1,0,0,1-.25.82L6.62,22.9v.31h5.52V22.9l-2-2.36a1,1,0,0,1-.26-.82V12.64l4.84,10.57h.56L19.5,12.64v8.43c0,.22,0,.26-.15.41l-1.5,1.45v.31Z"/></g></g></svg>