<svg className="ripple" xmlns="http://www.w3.org/2000/svg" viewBox="0 0 516.47 112.33"><defs><style>.cls-1{fill:#fff;}</style></defs><g id="Layer_2" data-name="Layer 2"><g id="Layer_1-2" data-name="Layer 1"><path class="cls-1" d="M33.59,112.81a3.91,3.91,0,0,0,1.35-.68,2.25,2.25,0,0,0,.8-1.37,2.67,2.67,0,0,0-.75-2.13L20.39,89.68l4-3.06,15.21,19.73a6.51,6.51,0,0,1,1.26,2.49,4.74,4.74,0,0,1-.06,2.34,6.33,6.33,0,0,1-1.1,2.14,10.24,10.24,0,0,1-1.93,1.9,8.57,8.57,0,0,1-2,1.14,10.89,10.89,0,0,1-2,.61,7,7,0,0,1-1.6.17l0-4.22A3.41,3.41,0,0,0,33.59,112.81Z" transform="translate(-20.39 -4.81)"/><path class="cls-1" d="M43.29,96a2.07,2.07,0,0,0,1.26.42,2.58,2.58,0,0,0,1.39-.53A3.36,3.36,0,0,0,47,94.7a2.64,2.64,0,0,0,.25-1.49,3.34,3.34,0,0,0-.64-1.57L41.28,84.1l3.53-2.5L53.58,94l-3.53,2.5L48.72,94.6a5,5,0,0,1-.37,2.67,5.52,5.52,0,0,1-1.88,2.16,5.87,5.87,0,0,1-2.82,1.15A4.44,4.44,0,0,1,41,100a7.39,7.39,0,0,1-2.3-2.19l-5.61-7.92,3.66-2.59,5.34,7.54A5,5,0,0,0,43.29,96Z" transform="translate(-20.39 -4.81)"/><path class="cls-1" d="M57,87.21a6.72,6.72,0,0,0,1.76-.16,4.62,4.62,0,0,0,1.3-.54,2,2,0,0,0,.9-1,1.32,1.32,0,0,0-.18-1.08,1.36,1.36,0,0,0-.83-.6,3.68,3.68,0,0,0-1.32-.05,10.51,10.51,0,0,0-1.93.41,12.64,12.64,0,0,1-2.23.35,4.42,4.42,0,0,1-2.14-.34A4.12,4.12,0,0,1,50.5,82.5a3.64,3.64,0,0,1-.64-2.33,4.57,4.57,0,0,1,.87-2.25,7.33,7.33,0,0,1,2-1.9A8.5,8.5,0,0,1,55,75a10.08,10.08,0,0,1,2.2-.39,8.32,8.32,0,0,1,2.12.12L59.21,78a6.61,6.61,0,0,0-2.45-.19,4.85,4.85,0,0,0-2.2.71,2,2,0,0,0-.8.87.94.94,0,0,0,.07.93,1.07,1.07,0,0,0,.87.52,4.87,4.87,0,0,0,1.37-.09l1.9-.34a13.07,13.07,0,0,1,2.44-.38,5.18,5.18,0,0,1,2.14.34A3.75,3.75,0,0,1,64.27,82a4.9,4.9,0,0,1,.85,2.54,4.29,4.29,0,0,1-.7,2.41A7,7,0,0,1,62.24,89a9.83,9.83,0,0,1-5.4,1.63,13,13,0,0,1-2.45-.24L54.66,87A14.87,14.87,0,0,0,57,87.21Z" transform="translate(-20.39 -4.81)"/><path class="cls-1" d="M62.61,64.13l10.5,17.56-3.54,2.12L59.07,66.25Zm5,3.18,1.86,3.12-8.07,4.82-1.86-3.11Z" transform="translate(-20.39 -4.81)"/><path class="cls-1" d="M79.18,62.38a19.38,19.38,0,0,1,2-2.41,12.25,12.25,0,0,1,3.14-2.27,10,10,0,0,1,3.33-1.09,5.6,5.6,0,0,1,2.89.34,4,4,0,0,1,2,1.92l4.94,9.56-3.72,1.93-4.52-8.74a2.5,2.5,0,0,0-.67-.86,1.75,1.75,0,0,0-.88-.38,2.68,2.68,0,0,0-1,.06,5.5,5.5,0,0,0-1.16.45A8.09,8.09,0,0,0,83.81,62a13.78,13.78,0,0,0-1.21,1.24,4.89,4.89,0,0,0-.67,1ZM87,69.75a1.91,1.91,0,0,0,1.1.25,2.93,2.93,0,0,0,1.26-.35,4,4,0,0,0,1.39-1.17,3.26,3.26,0,0,0,.62-1.62A3.41,3.41,0,0,0,91,64.93l1.38,1.52A3.83,3.83,0,0,1,92.78,69a4.83,4.83,0,0,1-1.14,2.28A7.45,7.45,0,0,1,89.47,73a6.19,6.19,0,0,1-2.63.73,4.6,4.6,0,0,1-2.48-.56A5,5,0,0,1,82,68.57a4.49,4.49,0,0,1,1-2.41,7.85,7.85,0,0,1,2.58-2A10,10,0,0,1,88,63.24,8.44,8.44,0,0,1,90,63a4,4,0,0,1,1.4.22L92.29,65a6.5,6.5,0,0,0-2.24,0,8.53,8.53,0,0,0-2.24.78,4.64,4.64,0,0,0-1.3.93,1.85,1.85,0,0,0-.48,1,1.89,1.89,0,0,0,.23,1.09A2,2,0,0,0,87,69.75Z" transform="translate(-20.39 -4.81)"/><path class="cls-1" d="M111.1,56.33a3.87,3.87,0,0,0,2,.77,4.46,4.46,0,0,0,2.24-.39,6.45,6.45,0,0,0,1.64-1,5.36,5.36,0,0,0,1.2-1.41,4.29,4.29,0,0,0,.57-1.64l1.75,4a5.52,5.52,0,0,1-1.46,1.87,9.54,9.54,0,0,1-2.53,1.55,9.43,9.43,0,0,1-4.39.82,7.79,7.79,0,0,1-5.51-12.72,9.47,9.47,0,0,1,3.61-2.64,9.26,9.26,0,0,1,2.87-.77,6.42,6.42,0,0,1,2.34.17L117.21,49a4.09,4.09,0,0,0-1.59-.69,5.72,5.72,0,0,0-1.9-.1,6.16,6.16,0,0,0-1.83.47,4.3,4.3,0,0,0-2.59,3.47,4.36,4.36,0,0,0,.37,2.27A4.58,4.58,0,0,0,111.1,56.33Z" transform="translate(-20.39 -4.81)"/><path class="cls-1" d="M128.19,55l-4,1.54-5.5-14.15,4-1.54Zm-.75-11.82a2.84,2.84,0,0,0-1.11.22,2.23,2.23,0,0,0-1.11.87,2.41,2.41,0,0,0-.35,1.41,5.45,5.45,0,0,0,.41,1.84l-1.55-.7a7.2,7.2,0,0,1-.52-3.25,6,6,0,0,1,.89-2.74,3.78,3.78,0,0,1,1.85-1.6,4.6,4.6,0,0,1,1.6-.31,2.4,2.4,0,0,1,1.41.41l-.49,4.09A3.25,3.25,0,0,0,127.44,43.16Z" transform="translate(-20.39 -4.81)"/><path class="cls-1" d="M138.07,50.58a7,7,0,0,1-3.59-1.68,8.28,8.28,0,0,1-2.34-3.62A9.37,9.37,0,0,1,131.6,42a6.87,6.87,0,0,1,.73-2.9,7.17,7.17,0,0,1,1.93-2.35,10.27,10.27,0,0,1,3.07-1.63,9.28,9.28,0,0,1,4.33-.54,6.32,6.32,0,0,1,3.42,1.6,8.72,8.72,0,0,1,2.25,3.66q.1.31.18.6a2.93,2.93,0,0,0,.13.48l-12.86,4.43-.86-2.49,9.27-3.2-.6,1.81a1.38,1.38,0,0,0,.07-.6,2.14,2.14,0,0,0-.09-.58,4,4,0,0,0-1-1.62,3.08,3.08,0,0,0-1.5-.81,3.33,3.33,0,0,0-1.78.14,4.26,4.26,0,0,0-1.48.82,2.93,2.93,0,0,0-.83,1.25,4.38,4.38,0,0,0-.21,1.66,7,7,0,0,0,.43,2.05,5.9,5.9,0,0,0,1.24,2.28,3.37,3.37,0,0,0,1.79,1.09,3.82,3.82,0,0,0,2.19-.18,5.39,5.39,0,0,0,2.13-1.29,3.72,3.72,0,0,0,1-2.1l4-.1a8,8,0,0,1-1.9,4.06,9.65,9.65,0,0,1-4.13,2.55A9.13,9.13,0,0,1,138.07,50.58Z" transform="translate(-20.39 -4.81)"/><path class="cls-1" d="M148.61,33.15a19.72,19.72,0,0,1,2.44-2,11.84,11.84,0,0,1,3.51-1.63,10,10,0,0,1,3.48-.45,5.58,5.58,0,0,1,2.77.89,3.93,3.93,0,0,1,1.6,2.26l3.05,10.32-4,1.19-2.79-9.44a2.53,2.53,0,0,0-.49-1,1.78,1.78,0,0,0-.8-.54,2.68,2.68,0,0,0-1-.14,5.33,5.33,0,0,0-1.23.22,8,8,0,0,0-1.88.82,10.9,10.9,0,0,0-1.42,1,4.36,4.36,0,0,0-.84.83Zm6.32,8.73a2,2,0,0,0,1,.45,2.84,2.84,0,0,0,1.31-.11,3.9,3.9,0,0,0,1.58-.88,3.31,3.31,0,0,0,.93-1.47,3.46,3.46,0,0,0-.07-2l1.07,1.75a3.85,3.85,0,0,1-.07,2.58,4.76,4.76,0,0,1-1.55,2,7.48,7.48,0,0,1-2.44,1.23,6.21,6.21,0,0,1-2.72.22,4.61,4.61,0,0,1-2.33-1,5,5,0,0,1-1.49-4.92,4.56,4.56,0,0,1,1.47-2.18,8.09,8.09,0,0,1,2.92-1.48,10.22,10.22,0,0,1,2.5-.44,8.26,8.26,0,0,1,2,.13,4,4,0,0,1,1.33.48l.58,2a6.22,6.22,0,0,0-2.21-.38,8.23,8.23,0,0,0-2.34.34,4.47,4.47,0,0,0-1.45.67,1.85,1.85,0,0,0-.67.9,2,2,0,0,0,0,1.12A2.13,2.13,0,0,0,154.93,41.88Z" transform="translate(-20.39 -4.81)"/><path class="cls-1" d="M172.46,25.07l.91,3.52-9.1,2.35-.91-3.51Zm-3.87-4.45,5.12,19.81-4,1-5.13-19.8Z" transform="translate(-20.39 -4.81)"/><path class="cls-1" d="M175.78,27.76a7.58,7.58,0,0,1,2.35-3.36,9.21,9.21,0,0,1,4-1.89,9.32,9.32,0,0,1,4.43,0,7.6,7.6,0,0,1,3.55,2.05,7.77,7.77,0,0,1,2,3.82,7.75,7.75,0,0,1-.18,4.29,7.55,7.55,0,0,1-2.35,3.37,9.87,9.87,0,0,1-8.41,1.86,7.49,7.49,0,0,1-3.55-2.08,7.67,7.67,0,0,1-2-3.8A7.78,7.78,0,0,1,175.78,27.76Zm5.11,5.39a4.22,4.22,0,0,0,1.73,1.18,3.7,3.7,0,0,0,2.12.1,3.62,3.62,0,0,0,1.84-1,4.35,4.35,0,0,0,1.1-1.78,4.29,4.29,0,0,0,.07-2.29,4.57,4.57,0,0,0-1-2.08A4,4,0,0,0,185,26.13a4.13,4.13,0,0,0-2.13-.07,3.82,3.82,0,0,0-2.93,2.73,4.53,4.53,0,0,0-.05,2.32A4.37,4.37,0,0,0,180.89,33.15Z" transform="translate(-20.39 -4.81)"/><path class="cls-1" d="M200.77,34.59l-4.19.75L193.89,20.4l4.19-.75Zm1.53-11.74a2.67,2.67,0,0,0-1.13,0,2.19,2.19,0,0,0-1.25.65,2.4,2.4,0,0,0-.62,1.31,5.3,5.3,0,0,0,0,1.89l-1.38-1a7.09,7.09,0,0,1,.11-3.29,6.07,6.07,0,0,1,1.39-2.52,3.89,3.89,0,0,1,2.13-1.22,4.7,4.7,0,0,1,1.63,0,2.45,2.45,0,0,1,1.31.67l-1.28,3.92A3.35,3.35,0,0,0,202.3,22.85Z" transform="translate(-20.39 -4.81)"/><path class="cls-1" d="M224.31,15.75l.45,3.6-9.33,1.19-.46-3.6ZM221,10.85l2.58,20.29-4.09.53-2.58-20.3Z" transform="translate(-20.39 -4.81)"/><path class="cls-1" d="M232.5,30.16l-4.24.42-1.51-15.1,4.24-.42Zm2.44-11.58a2.65,2.65,0,0,0-1.12-.09,2.19,2.19,0,0,0-1.3.54,2.46,2.46,0,0,0-.72,1.27,5.39,5.39,0,0,0-.1,1.88l-1.3-1.09a7.11,7.11,0,0,1,.37-3.27,6,6,0,0,1,1.58-2.4,3.88,3.88,0,0,1,2.22-1.05,4.42,4.42,0,0,1,1.62.13,2.43,2.43,0,0,1,1.26.78l-1.58,3.8A3.26,3.26,0,0,0,234.94,18.58Z" transform="translate(-20.39 -4.81)"/><path class="cls-1" d="M246.93,36.24l-4.41.28,3.3-9L238.6,14.28l4.78-.3L249,25.73l-2.14.07L251,13.5l4.45-.28Z" transform="translate(-20.39 -4.81)"/><path class="cls-1" d="M257.83,5.59a2.73,2.73,0,0,1,3.66-.13,2.31,2.31,0,0,1,.8,1.71,2.28,2.28,0,0,1-.68,1.76,2.72,2.72,0,0,1-3.66.12,2.3,2.3,0,0,1-.8-1.71A2.26,2.26,0,0,1,257.83,5.59ZM262,13.06l.52,15.17-4.16.14-.51-15.17Z" transform="translate(-20.39 -4.81)"/><path class="cls-1" d="M276.27,17.1a2.09,2.09,0,0,0-.83-1.05,2.56,2.56,0,0,0-1.45-.34,3.11,3.11,0,0,0-1.56.39,2.75,2.75,0,0,0-1.05,1.09,3.35,3.35,0,0,0-.36,1.65l.12,9.24-4.36.06L266.59,13l4.36-.05,0,2.3a4.64,4.64,0,0,1,1.81-2,5.37,5.37,0,0,1,2.74-.71,5.8,5.8,0,0,1,3,.65,4.5,4.5,0,0,1,1.8,2,7.13,7.13,0,0,1,.65,3.1L281.1,28l-4.45.06-.12-9.24A4.86,4.86,0,0,0,276.27,17.1Z" transform="translate(-20.39 -4.81)"/><path class="cls-1" d="M288.58,29.27A3.16,3.16,0,0,0,289,31a3.11,3.11,0,0,0,1.28,1.15,4.38,4.38,0,0,0,1.95.47,4.29,4.29,0,0,0,2.06-.42,3.65,3.65,0,0,0,1.59-1.46,5.21,5.21,0,0,0,.67-2.55l.54-14.84,4.12.15-.54,14.84a8.75,8.75,0,0,1-1.27,4.61,6.51,6.51,0,0,1-3.05,2.53,9.87,9.87,0,0,1-4.05.68,10.47,10.47,0,0,1-4.41-1,6.46,6.46,0,0,1-2.65-2.46,7.43,7.43,0,0,1-.94-3.55Zm-3.05-13.19a6.74,6.74,0,0,1,2.78-2.53,7.58,7.58,0,0,1,3.61-.74,6.42,6.42,0,0,1,2.61.62,5.84,5.84,0,0,1,2,1.61,7,7,0,0,1,1.26,2.48,9.89,9.89,0,0,1,.36,3.28,10,10,0,0,1-.6,3.26,7.13,7.13,0,0,1-1.44,2.41A5.75,5.75,0,0,1,294,27.94a6.44,6.44,0,0,1-2.64.44,7.57,7.57,0,0,1-3.55-1,6.85,6.85,0,0,1-2.59-2.74,8.29,8.29,0,0,1-.87-4.29A8.37,8.37,0,0,1,285.53,16.08Zm3.77,6.72a3.69,3.69,0,0,0,1.41,1.49,4.35,4.35,0,0,0,2,.57,3.73,3.73,0,0,0,1.39-.21,3.64,3.64,0,0,0,1.3-.78,4.57,4.57,0,0,0,1-1.3,4.18,4.18,0,0,0,.43-1.79,4.16,4.16,0,0,0-1.19-3.19,3.82,3.82,0,0,0-2.61-1.17,4.23,4.23,0,0,0-2.07.42,3.73,3.73,0,0,0-1.52,1.38,4.52,4.52,0,0,0-.62,2.27A4.43,4.43,0,0,0,289.3,22.8Z" transform="translate(-20.39 -4.81)"/><path class="cls-1" d="M323.16,15.19l-.32,3.61L313.47,18l.32-3.61ZM321,9.69l-1.82,20.38-4.11-.37,1.82-20.37Z" transform="translate(-20.39 -4.81)"/><path class="cls-1" d="M325.36,18.83a7.52,7.52,0,0,1,3.33-2.39,9.9,9.9,0,0,1,8.55,1,7.64,7.64,0,0,1,2.66,3.12,7.72,7.72,0,0,1,.59,4.26,7.74,7.74,0,0,1-1.6,4,7.46,7.46,0,0,1-3.33,2.4,9.87,9.87,0,0,1-8.55-1,7.59,7.59,0,0,1-2.66-3.13,7.82,7.82,0,0,1-.6-4.25A7.76,7.76,0,0,1,325.36,18.83Zm3,6.78a4.29,4.29,0,0,0,1.24,1.68,3.79,3.79,0,0,0,2,.81,3.68,3.68,0,0,0,2.06-.32,4.2,4.2,0,0,0,2.45-3.45,4.51,4.51,0,0,0-.27-2.3,3.8,3.8,0,0,0-1.25-1.68,4,4,0,0,0-2-.77,3.85,3.85,0,0,0-2.06.28,3.8,3.8,0,0,0-1.6,1.31,4.52,4.52,0,0,0-.82,2.18A4.43,4.43,0,0,0,328.38,25.61Z" transform="translate(-20.39 -4.81)"/><path class="cls-1" d="M374.12,38.72l-4.27-.86,1.82-9.06a5.36,5.36,0,0,0,.12-1.73,1.89,1.89,0,0,0-1.64-1.74,2.64,2.64,0,0,0-1.43.08,2.39,2.39,0,0,0-1.11.84,3.74,3.74,0,0,0-.66,1.6l-1.82,9.06-4.24-.85L362.71,27a5.32,5.32,0,0,0,.11-1.73,2,2,0,0,0-.49-1.16,2.1,2.1,0,0,0-1.14-.58,2.63,2.63,0,0,0-1.43.08,2.39,2.39,0,0,0-1.11.84,3.74,3.74,0,0,0-.66,1.6l-1.82,9.06-4.11-.82,3-14.89,4.11.83-.44,2.2A5,5,0,0,1,360,21.26a4.39,4.39,0,0,1,1.59-.57,5.24,5.24,0,0,1,1.84.07,6.59,6.59,0,0,1,1.94.67,3.87,3.87,0,0,1,1.27,1.13,4,4,0,0,1,.62,1.59,5.23,5.23,0,0,1,2.34-1.5,5.68,5.68,0,0,1,2.79-.09A5.06,5.06,0,0,1,375,23.77,4,4,0,0,1,376.16,26a8.44,8.44,0,0,1-.12,3.17Z" transform="translate(-20.39 -4.81)"/><path class="cls-1" d="M382.09,37a1.93,1.93,0,0,0,.65.92,3,3,0,0,0,1.18.58,3.83,3.83,0,0,0,1.81.05,3.24,3.24,0,0,0,1.55-.79,3.54,3.54,0,0,0,1-1.73v2a3.8,3.8,0,0,1-1.38,2.18,4.77,4.77,0,0,1-2.37.94,7.24,7.24,0,0,1-2.73-.19,6.26,6.26,0,0,1-2.45-1.21,4.71,4.71,0,0,1-1.47-2.07,4.55,4.55,0,0,1-.05-2.72,4.33,4.33,0,0,1,3.68-3.38,7.94,7.94,0,0,1,3.26.23,10.76,10.76,0,0,1,2.38.9,9.1,9.1,0,0,1,1.65,1.14,4,4,0,0,1,.89,1.1l-.51,2a6.5,6.5,0,0,0-1.7-1.46,8.15,8.15,0,0,0-2.19-.9,4.34,4.34,0,0,0-1.59-.17,1.79,1.79,0,0,0-1,.43,1.92,1.92,0,0,0-.56,1A2,2,0,0,0,382.09,37Zm-.95-10.74a21.07,21.07,0,0,1,3.12-.44,12,12,0,0,1,3.85.4,9.73,9.73,0,0,1,3.21,1.41,5.53,5.53,0,0,1,1.93,2.18,4,4,0,0,1,.21,2.76L390.77,43,386.71,42l2.46-9.52a2.59,2.59,0,0,0,.07-1.09,1.83,1.83,0,0,0-.4-.87,2.65,2.65,0,0,0-.82-.65,5.3,5.3,0,0,0-1.17-.44,8.16,8.16,0,0,0-2-.27,12.69,12.69,0,0,0-1.73.12,4.68,4.68,0,0,0-1.15.28Z" transform="translate(-20.39 -4.81)"/><path class="cls-1" d="M405.68,20.59l-7.53,24.62L394.21,44l7.52-24.62Zm7.17,13.23-8.05,4.1L409,48.53,404.15,47l-4.28-10.63,8.05-4.09Z" transform="translate(-20.39 -4.81)"/><path class="cls-1" d="M413.33,49.39a7,7,0,0,1-1.76-3.56,8.3,8.3,0,0,1,.45-4.29,8.94,8.94,0,0,1,1.63-2.9A6.86,6.86,0,0,1,416,36.82a7.08,7.08,0,0,1,3-.62,10.17,10.17,0,0,1,3.42.64,9.36,9.36,0,0,1,3.72,2.29,6.29,6.29,0,0,1,1.66,3.38,8.53,8.53,0,0,1-.52,4.27,4.24,4.24,0,0,1-.24.57c-.09.18-.15.34-.2.46L414,43.24l.88-2.48,9.23,3.29-1.59,1a1.68,1.68,0,0,0,.43-.42,2.84,2.84,0,0,0,.29-.51,4.13,4.13,0,0,0,.23-1.9,3.12,3.12,0,0,0-.66-1.57,3.33,3.33,0,0,0-1.49-1,4.29,4.29,0,0,0-1.66-.28,2.91,2.91,0,0,0-1.43.46,4.23,4.23,0,0,0-1.2,1.16,7.25,7.25,0,0,0-.95,1.87,6.15,6.15,0,0,0-.45,2.55,3.38,3.38,0,0,0,.71,2,4,4,0,0,0,1.82,1.23,5.49,5.49,0,0,0,2.48.33,3.81,3.81,0,0,0,2.11-1l3.14,2.38a8,8,0,0,1-4,2,9.66,9.66,0,0,1-4.83-.58A9.2,9.2,0,0,1,413.33,49.39Z" transform="translate(-20.39 -4.81)"/><path class="cls-1" d="M441,56.92a2,2,0,0,0,.49,1,3,3,0,0,0,1.07.77,4,4,0,0,0,1.78.35,3.2,3.2,0,0,0,1.66-.53A3.46,3.46,0,0,0,447.23,57l-.32,2a3.87,3.87,0,0,1-1.72,1.92,4.71,4.71,0,0,1-2.5.54,7.2,7.2,0,0,1-2.66-.64,6.3,6.3,0,0,1-2.21-1.59,4.43,4.43,0,0,1-.72-5,4.34,4.34,0,0,1,4.19-2.72,7.73,7.73,0,0,1,3.18.76,10.28,10.28,0,0,1,2.19,1.28A8.36,8.36,0,0,1,448.1,55a4,4,0,0,1,.7,1.23L448,58.06a6.32,6.32,0,0,0-1.44-1.72,8.2,8.2,0,0,0-2-1.25,4.35,4.35,0,0,0-1.54-.43,1.86,1.86,0,0,0-1.09.26,1.89,1.89,0,0,0-.7.86A2.06,2.06,0,0,0,441,56.92Zm.84-10.75a20.21,20.21,0,0,1,3.14.08,11.93,11.93,0,0,1,3.73,1,10,10,0,0,1,2.94,1.92,5.48,5.48,0,0,1,1.54,2.47,3.93,3.93,0,0,1-.25,2.76l-4.36,9.83-3.83-1.69,4-9A2.67,2.67,0,0,0,449,52.5a1.71,1.71,0,0,0-.26-.92,2.7,2.7,0,0,0-.7-.78,4.71,4.71,0,0,0-1.07-.62,7.7,7.7,0,0,0-2-.6,13.07,13.07,0,0,0-1.73-.17,4.72,4.72,0,0,0-1.18.09Z" transform="translate(-20.39 -4.81)"/><path class="cls-1" d="M464.32,72.16l-3.76-2,7.11-13.41,3.76,2Zm8.45-8.3a2.55,2.55,0,0,0-.88-.69,2.2,2.2,0,0,0-1.39-.27,2.47,2.47,0,0,0-1.3.65,5.5,5.5,0,0,0-1.12,1.52l-.48-1.63a7.17,7.17,0,0,1,2.12-2.52,5.92,5.92,0,0,1,2.64-1.12,3.84,3.84,0,0,1,2.43.35,4.65,4.65,0,0,1,1.28,1,2.42,2.42,0,0,1,.62,1.34l-3.42,2.29A3.42,3.42,0,0,0,472.77,63.86Z" transform="translate(-20.39 -4.81)"/><path class="cls-1" d="M483.13,65.21,475.61,78.4,472,76.34l7.52-13.19Zm.4-8.53a2.59,2.59,0,0,1,2,.3,2.47,2.47,0,0,1,1.23,1.52,2.27,2.27,0,0,1-.21,1.87,2.34,2.34,0,0,1-1.5,1.14,2.56,2.56,0,0,1-1.94-.29,2.5,2.5,0,0,1-1.24-1.53,2.27,2.27,0,0,1,.21-1.87A2.34,2.34,0,0,1,483.53,56.68Z" transform="translate(-20.39 -4.81)"/><path class="cls-1" d="M475.43,86.61l11.94-19L491,69.89l-11.94,19Zm18.87-.48a7.11,7.11,0,0,1-3.74.86A7.24,7.24,0,0,1,487,85.87a6.09,6.09,0,0,1-2-1.89,5.42,5.42,0,0,1-.83-2.43,7.34,7.34,0,0,1,.29-2.82,13.19,13.19,0,0,1,3.54-5.64,7.43,7.43,0,0,1,2.42-1.49,5.75,5.75,0,0,1,2.56-.32,5.92,5.92,0,0,1,2.55.93,7.06,7.06,0,0,1,2.53,2.7,7.24,7.24,0,0,1,.85,3.74,9.95,9.95,0,0,1-4.7,7.48Zm.15-7.8a3.9,3.9,0,0,0-.49-2,4.24,4.24,0,0,0-1.45-1.5,3.84,3.84,0,0,0-1.32-.52,3.75,3.75,0,0,0-1.49,0,4.15,4.15,0,0,0-1.47.64A4.53,4.53,0,0,0,487,76.31a4.59,4.59,0,0,0-.68,1.74,4,4,0,0,0,.08,1.59A4.17,4.17,0,0,0,487,81a3.61,3.61,0,0,0,1,1,4.16,4.16,0,0,0,2,.66,4,4,0,0,0,2-.42,4.88,4.88,0,0,0,2.43-3.87Z" transform="translate(-20.39 -4.81)"/><path class="cls-1" d="M491.55,96.84,504.61,78.6l3.49,2.49L495,99.34Zm18.87.66a7,7,0,0,1-3.79.64,7.25,7.25,0,0,1-3.45-1.33,6.05,6.05,0,0,1-1.83-2,5.45,5.45,0,0,1-.68-2.48,7.48,7.48,0,0,1,.45-2.8,12.34,12.34,0,0,1,1.6-3A12.1,12.1,0,0,1,505,84.11a7.6,7.6,0,0,1,2.5-1.33,5.63,5.63,0,0,1,5.07.91,7.15,7.15,0,0,1,3,6.64,8.59,8.59,0,0,1-1.72,4.2A8.73,8.73,0,0,1,510.42,97.5Zm.61-7.77a3.9,3.9,0,0,0-.36-2,4.19,4.19,0,0,0-1.36-1.58,3.84,3.84,0,0,0-1.28-.59,3.72,3.72,0,0,0-1.49-.08A4.18,4.18,0,0,0,505,86a5,5,0,0,0-2.13,3,3.83,3.83,0,0,0,0,1.58,3.93,3.93,0,0,0,.55,1.39,3.55,3.55,0,0,0,1,1,4.28,4.28,0,0,0,1.94.78,4,4,0,0,0,2-.31,4.25,4.25,0,0,0,1.81-1.53A4.32,4.32,0,0,0,511,89.73Z" transform="translate(-20.39 -4.81)"/><path class="cls-1" d="M531,85l-15.92,20.24-3.42-2.7,15.91-20.23Z" transform="translate(-20.39 -4.81)"/><path class="cls-1" d="M520.74,109a7,7,0,0,1-.36-4,8.3,8.3,0,0,1,2-3.84,9.34,9.34,0,0,1,2.57-2.12,6.81,6.81,0,0,1,2.88-.83,7,7,0,0,1,3,.49,10.27,10.27,0,0,1,3,1.83,9.31,9.31,0,0,1,2.64,3.48,6.26,6.26,0,0,1,.34,3.75,8.67,8.67,0,0,1-2,3.79c-.14.16-.29.32-.43.45a3.77,3.77,0,0,0-.35.36l-10.3-8.88,1.73-2,7.42,6.4-1.87.39a1.26,1.26,0,0,0,.56-.24,2,2,0,0,0,.45-.37,4.09,4.09,0,0,0,.91-1.68,3.1,3.1,0,0,0-.06-1.71,3.31,3.31,0,0,0-1-1.46,4.24,4.24,0,0,0-1.46-.87,2.89,2.89,0,0,0-1.49-.09,4.35,4.35,0,0,0-1.54.66,7.3,7.3,0,0,0-1.56,1.4,6,6,0,0,0-1.34,2.22,3.41,3.41,0,0,0-.05,2.09,4,4,0,0,0,1.26,1.81,5.39,5.39,0,0,0,2.19,1.19,3.75,3.75,0,0,0,2.33-.17l2.07,3.35a7.94,7.94,0,0,1-4.46.4,9.56,9.56,0,0,1-4.29-2.27A9.25,9.25,0,0,1,520.74,109Z" transform="translate(-20.39 -4.81)" /></g></g></svg>